<svg width="40" height="40" viewBox="0 0 40 40" fill="none" xmlns="http://www.w3.org/2000/svg">
<path d="M20 2C15.2272 2 10.6456 3.89759 7.27344 7.27203C3.8978 10.6478 2.00097 15.226 2 20C2 24.772 3.89844 29.3535 7.27344 32.728C10.6456 36.1024 15.2272 38 20 38C24.7728 38 29.3544 36.1024 32.7266 32.728C36.1016 29.3535 38 24.772 38 20C38 15.228 36.1016 10.6465 32.7266 7.27203C29.3544 3.89759 24.7728 2 20 2Z" fill="#4351D8"/>
<rect x="14" y="16" width="9" height="11" rx="1" stroke="white" stroke-width="2"/>
<path d="M19 12H23C25.2091 12 27 13.7909 27 16V22" stroke="white" stroke-width="2" stroke-linecap="round"/>
</svg>
