<svg width="40" height="40" viewBox="0 0 40 40" fill="none" xmlns="http://www.w3.org/2000/svg">
<path d="M20 2C15.2272 2 10.6456 3.89759 7.27344 7.27203C3.8978 10.6478 2.00097 15.226 2 20C2 24.772 3.89844 29.3535 7.27344 32.728C10.6456 36.1024 15.2272 38 20 38C24.7728 38 29.3544 36.1024 32.7266 32.728C36.1016 29.3535 38 24.772 38 20C38 15.228 36.1016 10.6465 32.7266 7.27203C29.3544 3.89759 24.7728 2 20 2Z" fill="#4351D8"/>
<path d="M19.9857 19.8582C17.0504 19.8582 14.6107 17.3949 14.6107 14.48C14.6107 11.4644 17.0504 9 19.9867 9C23.0227 9 25.3616 11.4633 25.3616 14.48C25.3593 15.1888 25.2188 15.8901 24.9483 16.544C24.6778 17.1979 24.2824 17.7916 23.7849 18.2911C23.2873 18.7906 22.6973 19.1862 22.0484 19.4552C21.3996 19.7243 20.7047 19.8616 20.0033 19.8592L19.9857 19.8582ZM19.9857 12.1679C18.743 12.1679 17.7975 13.2232 17.7975 14.4811C17.7975 15.7369 18.743 16.6924 19.9867 16.6924C21.2803 16.6924 22.1759 15.7369 22.1759 14.4811C22.177 13.2221 21.2803 12.1679 19.9857 12.1679ZM22.1261 24.3333L25.1631 27.2996C25.7606 27.9517 25.7606 28.9072 25.1631 29.511C24.5169 30.163 23.5204 30.163 23.0227 29.511L19.9867 26.4943L17.0504 29.511C16.7522 29.8123 16.3532 29.9625 15.9043 29.9625C15.5563 29.9625 15.1583 29.8113 14.8092 29.511C14.2118 28.9072 14.2118 27.9517 14.8092 27.2986L17.8951 24.3323C16.7807 23.9987 15.7117 23.5264 14.7126 22.9263C13.9655 22.5242 13.8169 21.5193 14.2149 20.7643C14.7126 20.0104 15.6082 19.8099 16.4052 20.3128C17.4843 20.9784 18.724 21.3304 19.9883 21.3304C21.2525 21.3304 22.4922 20.9784 23.5713 20.3128C24.3683 19.8099 25.3128 20.0104 25.7606 20.7643C26.2094 21.5193 26.0089 22.5231 25.3117 22.9263C24.3672 23.5301 23.2721 23.9826 22.1271 24.3344L22.1261 24.3333Z" fill="white"/>
</svg>
