<svg width="40" height="40" viewBox="0 0 40 40" fill="none" xmlns="http://www.w3.org/2000/svg">
<g clip-path="url(#clip0_742_101)">
<path d="M20 2C15.2272 2 10.6456 3.89759 7.27344 7.27203C3.8978 10.6478 2.00097 15.226 2 20C2 24.772 3.89844 29.3535 7.27344 32.728C10.6456 36.1024 15.2272 38 20 38C24.7728 38 29.3544 36.1024 32.7266 32.728C36.1016 29.3535 38 24.772 38 20C38 15.228 36.1016 10.6465 32.7266 7.27203C29.3544 3.89759 24.7728 2 20 2Z" fill="#4351D8"/>
<path d="M10.1473 19.8098C15.3954 17.5238 18.8942 16.0167 20.6435 15.2885C25.6442 13.2092 26.682 12.8481 27.3598 12.8358C27.5088 12.8334 27.8407 12.8703 28.0573 13.0454C28.2373 13.193 28.2879 13.3927 28.3132 13.5329C28.3357 13.673 28.3667 13.9922 28.3413 14.2414C28.0713 17.0876 26.8985 23.9946 26.3023 27.1825C26.052 28.5314 25.5542 28.9837 25.0732 29.0278C24.027 29.124 23.2338 28.3371 22.2213 27.6736C20.6379 26.6349 19.7435 25.9886 18.2051 24.9753C16.4276 23.8042 17.5807 23.1604 18.5932 22.1085C18.8576 21.8332 23.4645 17.6439 23.5517 17.264C23.5629 17.2164 23.5742 17.0393 23.4673 16.9459C23.3632 16.8522 23.2085 16.8843 23.096 16.9096C22.9357 16.9456 20.4073 18.6185 15.5023 21.9279C14.7851 22.4213 14.1354 22.6617 13.5504 22.6491C12.9092 22.6353 11.6717 22.2857 10.752 21.987C9.62697 21.6205 8.72978 21.4268 8.80853 20.8043C8.8479 20.4803 9.29509 20.1488 10.1473 19.8098Z" fill="white"/>
</g>
<defs>
<clipPath id="clip0_742_101">
<rect width="36" height="36" fill="white" transform="translate(2 2)"/>
</clipPath>
</defs>
</svg>
