<svg width="40" height="40" viewBox="0 0 40 40" fill="none" xmlns="http://www.w3.org/2000/svg">
<path d="M20 2C15.2272 2 10.6456 3.89759 7.27344 7.27203C3.8978 10.6478 2.00097 15.226 2 20C2 24.772 3.89844 29.3535 7.27344 32.728C10.6456 36.1024 15.2272 38 20 38C24.7728 38 29.3544 36.1024 32.7266 32.728C36.1016 29.3535 38 24.772 38 20C38 15.228 36.1016 10.6465 32.7266 7.27203C29.3544 3.89759 24.7728 2 20 2Z" fill="#4351D8"/>
<path d="M10.0586 14.1302H13.4986C13.6086 19.8502 16.1286 22.2702 18.1286 22.7702V14.1302H21.3586V19.0602C23.3286 18.8502 25.4086 16.6002 26.1086 14.1202H29.3286C29.0659 15.4039 28.5413 16.6197 27.7877 17.6916C27.0341 18.7635 26.0676 19.6686 24.9486 20.3502C26.1977 20.9717 27.3007 21.851 28.185 22.93C29.0693 24.0091 29.7147 25.2634 30.0786 26.6102H26.5286C25.7686 24.2402 23.8686 22.4002 21.3586 22.1502V26.6102H20.9586C14.1186 26.6102 10.2186 21.9302 10.0586 14.1302Z" fill="white"/>
</svg>
