<svg width="40" height="40" viewBox="0 0 40 40" fill="none" xmlns="http://www.w3.org/2000/svg">
<path d="M5 11.6667V8.33333C5 7.44928 5.35119 6.60143 5.97631 5.97631C6.60143 5.35119 7.44928 5 8.33333 5H11.6667M28.3333 5H31.6667C32.5507 5 33.3986 5.35119 34.0237 5.97631C34.6488 6.60143 35 7.44928 35 8.33333V11.6667M35 28.3333V31.6667C35 32.5507 34.6488 33.3986 34.0237 34.0237C33.3986 34.6488 32.5507 35 31.6667 35H28.3333M11.6667 35H8.33333C7.44928 35 6.60143 34.6488 5.97631 34.0237C5.35119 33.3986 5 32.5507 5 31.6667V28.3333" stroke="white" stroke-width="2.5" stroke-linecap="round" stroke-linejoin="round"/>
<path d="M20 24C22.2091 24 24 22.2091 24 20C24 17.7909 22.2091 16 20 16C17.7909 16 16 17.7909 16 20C16 22.2091 17.7909 24 20 24Z" fill="white"/>
<path d="M31.5735 20.55C31.698 20.1939 31.698 19.8061 31.5735 19.45C30.6352 17.1507 29.0332 15.1831 26.972 13.798C24.9107 12.4129 22.4836 11.6732 20.0002 11.6732C17.5168 11.6732 15.0897 12.4129 13.0284 13.798C10.9672 15.1831 9.36521 17.1507 8.42686 19.45C8.30237 19.8061 8.30237 20.1939 8.42686 20.55C9.36521 22.8493 10.9672 24.817 13.0284 26.2021C15.0897 27.5872 17.5168 28.3269 20.0002 28.3269C22.4836 28.3269 24.9107 27.5872 26.972 26.2021C29.0332 24.817 30.6352 22.8493 31.5735 20.55Z" stroke="white" stroke-width="2.5" stroke-linecap="round" stroke-linejoin="round"/>
</svg>
