<svg width="40" height="40" viewBox="0 0 40 40" fill="none" xmlns="http://www.w3.org/2000/svg">
<path d="M20 29.8333L15 27.3333M15 27.3333L6.44721 31.6097C5.78231 31.9421 5 31.4586 5 30.7153V10.6666L15 5.66663M15 27.3333V5.66663M15 5.66663L25 10.6666M25 10.6666L33.5528 6.39023C34.2177 6.05778 35 6.54128 35 7.28466V17.3333M25 10.6666V19M31.6667 29V29.0166M35.2017 32.535C35.9011 31.8358 36.3774 30.9448 36.5705 29.9749C36.7635 29.005 36.6646 27.9995 36.2862 27.0858C35.9078 26.1721 35.267 25.3911 34.4447 24.8416C33.6224 24.2922 32.6556 23.9989 31.6667 23.9989C30.6777 23.9989 29.7109 24.2922 28.8887 24.8416C28.0664 25.3911 27.4255 26.1721 27.0471 27.0858C26.6687 27.9995 26.5698 29.005 26.7629 29.9749C26.9559 30.9448 27.4323 31.8358 28.1317 32.535C28.8283 33.2327 30.0067 34.2766 31.6667 35.6666C33.4189 34.1833 34.5972 33.1394 35.2017 32.535Z" stroke="white" stroke-width="2.5" stroke-linecap="round" stroke-linejoin="round"/>
</svg>
