<svg width="40" height="40" viewBox="0 0 40 40" fill="none" xmlns="http://www.w3.org/2000/svg">
<path d="M17.4997 26C17.4997 25.3369 17.7631 24.701 18.2319 24.2322C18.7007 23.7634 19.3366 23.5 19.9997 23.5C20.6627 23.5 21.2986 23.7634 21.7674 24.2322C22.2363 24.701 22.4997 25.3369 22.4997 26M12.4997 32.6666H10.7563C8.48967 32.6666 7.35467 32.6666 6.53134 32.1383C6.12876 31.8797 5.78657 31.5375 5.52801 31.135C4.99967 30.3116 4.99967 29.1783 4.99967 26.91C4.99967 26.1816 4.99967 25.8183 4.92301 25.4683C4.88567 25.2939 4.83439 25.1228 4.76967 24.9566C4.63801 24.6233 4.43634 24.3233 4.03301 23.7166L3.33301 22.6666H12.4997C14.053 22.6666 14.8297 22.6666 15.4413 22.92C15.846 23.0875 16.2138 23.3331 16.5235 23.6428C16.8332 23.9525 17.0788 24.3203 17.2463 24.725C17.4997 25.3366 17.4997 26.1133 17.4997 27.6666C17.4997 29.22 17.4997 29.9966 17.2463 30.6083C17.0788 31.013 16.8332 31.3807 16.5235 31.6904C16.2138 32.0001 15.846 32.2458 15.4413 32.4133C14.8297 32.6666 14.053 32.6666 12.4997 32.6666ZM27.4997 32.6666H29.243C31.5097 32.6666 32.6447 32.6666 33.468 32.1383C33.8706 31.8797 34.2128 31.5375 34.4713 31.135C34.9997 30.3116 34.9997 29.1783 34.9997 26.91C34.9997 26.1816 34.9997 25.8183 35.0763 25.4683C35.113 25.295 35.1641 25.1244 35.2297 24.9566C35.3613 24.6233 35.563 24.3233 35.9663 23.7166L36.6663 22.6666H27.4997C25.9463 22.6666 25.1697 22.6666 24.558 22.92C24.1533 23.0875 23.7856 23.3331 23.4759 23.6428C23.1662 23.9525 22.9205 24.3203 22.753 24.725C22.4997 25.3366 22.4997 26.1133 22.4997 27.6666C22.4997 29.22 22.4997 29.9966 22.753 30.6083C22.9205 31.013 23.1662 31.3807 23.4759 31.6904C23.7856 32.0001 24.1533 32.2458 24.558 32.4133C25.1697 32.6666 25.9463 32.6666 27.4997 32.6666Z" stroke="white" stroke-width="2.5" stroke-linecap="round" stroke-linejoin="round"/>
<path d="M17.5 11.5V8.33337C17.5 7.78109 17.9477 7.33337 18.5 7.33337H20L20.9596 8.29293C21.3501 8.68346 21.9832 8.68346 22.3738 8.29293L23.3333 7.33337H30.8333C33.1345 7.33337 35 9.19885 35 11.5V11.5V11.5C35 13.8012 33.1345 15.6667 30.8333 15.6667H23.3333L22.3738 14.7071C21.9832 14.3166 21.3501 14.3166 20.9596 14.7071L20 15.6667H18.5C17.9477 15.6667 17.5 15.219 17.5 14.6667V11.5ZM17.5 11.5H5M25 11.5H30.8333" stroke="white" stroke-width="2.5" stroke-linecap="round" stroke-linejoin="round"/>
</svg>
