<svg width="495" height="392" viewBox="0 0 495 392" fill="none" xmlns="http://www.w3.org/2000/svg">
<path fill-rule="evenodd" clip-rule="evenodd" d="M396.474 300.38C378.507 317.272 358.754 332.166 337.563 344.8L337.279 344.971C285.678 375.47 227.609 391.735 169.38 392H167.932C111.321 392 57.4853 377.001 12.1422 348.6L1.61362 342.003L0.704669 329.669C-0.00494176 319.92 -0.178784 310.139 0.183921 300.37H25.9184H49.5975C49.3978 304.77 49.3286 309.176 49.39 313.583C126.698 356.104 228.263 352.343 311.895 302.969L312.009 302.903C313.402 302.073 314.788 301.232 316.167 300.38H369.367H396.474ZM162.828 87.7076L102.847 87.6981C119.675 72.4271 137.989 58.8728 157.517 47.2373C209.26 16.6342 267.3 0.321342 325.529 0H327.29C383.815 0 437.538 14.9519 482.796 43.2867L491.431 48.6928L494.176 60.677L494.309 62.52C494.953 71.4231 495.142 80.3451 494.896 89.267C487.937 88.2463 480.628 87.6981 472.958 87.6981H445.548C445.633 84.5887 445.671 81.4603 445.624 78.3414C369.106 36.2786 268.747 39.6297 185.514 87.7076H162.828Z" fill="#4351D8" fill-opacity="0.2"/>
</svg>
